<?xml version="1.0" encoding="utf-8"?>
<!-- Generator: Adobe Illustrator 19.0.0, SVG Export Plug-In . SVG Version: 6.00 Build 0)  -->
<svg version="1.1" id="Layer_1" xmlns="http://www.w3.org/2000/svg" xmlns:xlink="http://www.w3.org/1999/xlink" x="0px" y="0px"
	 viewBox="0 0 732.8 601.6" style="enable-background:new 0 0 732.8 601.6;" xml:space="preserve">
<style type="text/css">
	.st0{fill:url(#XMLID_80_);}
	.st1{fill:#A8A7A7;}
	.st2{fill:url(#XMLID_81_);}
	.st3{fill:url(#XMLID_84_);}
	.st4{fill:url(#XMLID_85_);}
	.st5{fill:url(#XMLID_86_);stroke:#41C3D3;}
	.st6{fill:url(#XMLID_87_);stroke:#41C3D3;}
	.st7{fill:url(#XMLID_88_);stroke:#41C3D3;}
	.st8{fill:url(#XMLID_89_);stroke:#41C3D3;}
	.st9{fill:url(#XMLID_90_);stroke:#41C3D3;}
	.st10{fill:url(#XMLID_91_);stroke:#41C3D3;}
	.st11{fill:url(#XMLID_92_);stroke:#41C3D3;}
	.st12{fill:url(#XMLID_93_);stroke:#41C3D3;}
	.st13{fill:#FFFFFF;}
</style>
<g id="XMLID_2_">
	
		<linearGradient id="XMLID_80_" gradientUnits="userSpaceOnUse" x1="-41.1127" y1="3567.8472" x2="-423.5108" y2="3963.9912" gradientTransform="matrix(-0.137 -0.9971 1 -2.090000e-02 -3344.2864 225.1513)">
		<stop  offset="0" style="stop-color:#DBDBDA"/>
		<stop  offset="0.2632" style="stop-color:#D3D3D2"/>
		<stop  offset="0.6909" style="stop-color:#BEBDBD"/>
		<stop  offset="1" style="stop-color:#ACABAB"/>
	</linearGradient>
	<polygon id="XMLID_31_" class="st0" points="236,583.4 205.7,556.1 206,513.5 219.6,503.4 219,305.8 198.2,292.9 198.3,187.2 
		234.3,153.7 324.3,153.4 347.8,170.3 589.9,169.9 603,184.4 685.3,184.8 711.3,216.6 709.3,324.9 695.5,337.8 695.6,437.6 
		707.8,454.2 706.9,550.8 679.7,567.8 344.6,567.8 330.7,583.5 	"/>
	<polygon id="XMLID_30_" class="st1" points="685.3,184.8 603,184.4 589.9,169.9 347.8,170.3 324.3,153.4 234.3,153.7 198.3,187.2 
		198.2,292.9 185.1,273.2 184.8,170.9 221.1,136.2 312.7,136.2 337.1,154.3 580.6,153.8 595.6,169.1 672.5,169 	"/>
	
		<linearGradient id="XMLID_81_" gradientUnits="userSpaceOnUse" x1="115.9983" y1="-1774.8383" x2="206.3673" y2="-1772.975" gradientTransform="matrix(0.137 -0.9971 -1 -2.090000e-02 -1545.6088 225.1513)">
		<stop  offset="8.615740e-02" style="stop-color:#B1B2B1"/>
		<stop  offset="0.1825" style="stop-color:#B9B9B9"/>
		<stop  offset="0.4431" style="stop-color:#C9C9C9"/>
		<stop  offset="0.7121" style="stop-color:#D3D3D3"/>
		<stop  offset="1" style="stop-color:#D7D6D6"/>
	</linearGradient>
	<polygon id="XMLID_29_" class="st2" points="401.5,154.2 505.9,154.2 505.9,100.8 406,22.1 -2,22.1 -1.9,83.8 350.6,83.8 
		401.6,123.6 	"/>
	<polygon id="XMLID_28_" class="st1" points="505.9,154.2 505.9,100.8 406,22.1 -2,22.1 -1.3,11.2 413.5,11.3 513,90.3 513.1,154.1 
			"/>
	
		<linearGradient id="XMLID_84_" gradientUnits="userSpaceOnUse" x1="181.1381" y1="-1710.9836" x2="223.4371" y2="-1710.1115" gradientTransform="matrix(0.137 -0.9971 -1 -2.090000e-02 -1545.6088 225.1513)">
		<stop  offset="8.615740e-02" style="stop-color:#B1B2B1"/>
		<stop  offset="0.1825" style="stop-color:#B9B9B9"/>
		<stop  offset="0.4431" style="stop-color:#C9C9C9"/>
		<stop  offset="0.7121" style="stop-color:#D3D3D3"/>
		<stop  offset="1" style="stop-color:#D7D6D6"/>
	</linearGradient>
	<polyline id="XMLID_83_" class="st3" points="406,22.1 -12,22.1 -11.9,83.8 350.6,83.8 	"/>
	<polyline id="XMLID_82_" class="st1" points="406,22.1 -12,22.1 -11.3,11.2 413.5,11.3 	"/>
	
		<linearGradient id="XMLID_85_" gradientUnits="userSpaceOnUse" x1="-63.3204" y1="3597.6963" x2="-371.9881" y2="3931.3574" gradientTransform="matrix(-0.137 -0.9971 1 -2.090000e-02 -3344.2864 225.1513)">
		<stop  offset="0" style="stop-color:#6CBED8"/>
		<stop  offset="0.375" style="stop-color:#62B9D5"/>
		<stop  offset="0.9848" style="stop-color:#43ABD0"/>
		<stop  offset="1" style="stop-color:#42AAD0"/>
	</linearGradient>
	<polygon id="XMLID_27_" class="st4" points="264.3,547.9 240.5,528.7 239.8,215.7 260.4,197.9 658.3,197.1 678.3,221.5 
		678.3,547.3 	"/>
	<polygon id="XMLID_26_" class="st1" points="205.7,556.1 206,513.5 219.6,503.4 219,305.8 207.4,298.5 208.5,485.8 193.9,497.1 
		194.1,539 	"/>
	
		<radialGradient id="XMLID_86_" cx="1772.433" cy="715.9701" r="49.9174" gradientTransform="matrix(0.9928 -1.965784e-02 -6.520383e-02 0.6903 -1215.1664 64.2687)" gradientUnits="userSpaceOnUse">
		<stop  offset="0" style="stop-color:#CAEAF6"/>
		<stop  offset="0.5648" style="stop-color:#A8DDE6"/>
		<stop  offset="0.6787" style="stop-color:#A4DCE5"/>
		<stop  offset="0.7702" style="stop-color:#99D8E3"/>
		<stop  offset="0.8539" style="stop-color:#87D2DF"/>
		<stop  offset="0.9324" style="stop-color:#6BCBD9"/>
		<stop  offset="1" style="stop-color:#41C3D3"/>
	</radialGradient>
	<polygon id="XMLID_25_" class="st5" points="467.2,509.7 467.3,537.7 528.5,537.6 528.4,520.4 507.8,520.4 500,509.7 	"/>
	
		<radialGradient id="XMLID_87_" cx="1852.166" cy="726.8936" r="49.9175" gradientTransform="matrix(0.9928 -1.965784e-02 -6.520383e-02 0.6903 -1213.8793 58.2951)" gradientUnits="userSpaceOnUse">
		<stop  offset="0" style="stop-color:#CAEAF6"/>
		<stop  offset="0.5648" style="stop-color:#A8DDE6"/>
		<stop  offset="0.6787" style="stop-color:#A4DCE5"/>
		<stop  offset="0.7702" style="stop-color:#99D8E3"/>
		<stop  offset="0.8539" style="stop-color:#87D2DF"/>
		<stop  offset="0.9324" style="stop-color:#6BCBD9"/>
		<stop  offset="1" style="stop-color:#41C3D3"/>
	</radialGradient>
	<polygon id="XMLID_24_" class="st6" points="546.9,509.7 547.1,537.7 608.2,537.6 608.1,520.4 587.5,520.4 579.8,509.7 	"/>
	
		<radialGradient id="XMLID_88_" cx="1694.5759" cy="705.2371" r="49.9175" gradientTransform="matrix(0.9928 -1.965784e-02 -6.520383e-02 0.6903 -1216.429 70.081)" gradientUnits="userSpaceOnUse">
		<stop  offset="0" style="stop-color:#CAEAF6"/>
		<stop  offset="0.5648" style="stop-color:#A8DDE6"/>
		<stop  offset="0.6787" style="stop-color:#A4DCE5"/>
		<stop  offset="0.7702" style="stop-color:#99D8E3"/>
		<stop  offset="0.8539" style="stop-color:#87D2DF"/>
		<stop  offset="0.9324" style="stop-color:#6BCBD9"/>
		<stop  offset="1" style="stop-color:#41C3D3"/>
	</radialGradient>
	<polygon id="XMLID_23_" class="st7" points="389.3,509.7 389.5,537.6 450.6,537.6 450.5,520.3 429.9,520.3 422.2,509.6 	"/>
	
		<radialGradient id="XMLID_89_" cx="1614.8428" cy="694.3176" r="51.9367" gradientTransform="matrix(0.9909 -1.478859e-03 -7.742505e-02 0.6905 -1206.198 46.6092)" gradientUnits="userSpaceOnUse">
		<stop  offset="0" style="stop-color:#CAEAF6"/>
		<stop  offset="0.5648" style="stop-color:#A8DDE6"/>
		<stop  offset="0.6787" style="stop-color:#A4DCE5"/>
		<stop  offset="0.7702" style="stop-color:#99D8E3"/>
		<stop  offset="0.8539" style="stop-color:#87D2DF"/>
		<stop  offset="0.9324" style="stop-color:#6BCBD9"/>
		<stop  offset="1" style="stop-color:#41C3D3"/>
	</radialGradient>
	<polygon id="XMLID_22_" class="st8" points="309.6,509.7 309.8,537.6 370.9,537.6 370.8,520.3 350.2,520.3 342.4,509.6 	"/>
	<g id="XMLID_15_">
		
			<radialGradient id="XMLID_90_" cx="-3853.0823" cy="523.3749" r="15.3087" gradientTransform="matrix(-1 0 0 1 -3574.8999 -1.000000e-04)" gradientUnits="userSpaceOnUse">
			<stop  offset="0" style="stop-color:#41C3D3"/>
			<stop  offset="6.134356e-02" style="stop-color:#6BCBD9"/>
			<stop  offset="0.1326" style="stop-color:#87D2DF"/>
			<stop  offset="0.2085" style="stop-color:#99D8E3"/>
			<stop  offset="0.2915" style="stop-color:#A4DCE5"/>
			<stop  offset="0.3948" style="stop-color:#A8DDE6"/>
			<stop  offset="0.9318" style="stop-color:#CAEAF6"/>
		</radialGradient>
		<path id="XMLID_19_" class="st9" d="M261.4,523.7c0,9.4,7.6,17,16.9,17c9.3,0,16.9-7.6,16.9-17c0-9.4-7.6-17-16.9-17
			C269,506.7,261.4,514.3,261.4,523.7z M265.3,523.7c0-7.2,5.8-13.1,13-13.1c7.2,0,13,5.9,13,13.1s-5.8,13.1-13,13.1
			C271.1,536.8,265.3,530.9,265.3,523.7z"/>
		
			<radialGradient id="XMLID_91_" cx="-3853.0823" cy="523.3749" r="15.3087" gradientTransform="matrix(-1 0 0 1 -3574.8999 -1.000000e-04)" gradientUnits="userSpaceOnUse">
			<stop  offset="0" style="stop-color:#41C3D3"/>
			<stop  offset="6.134356e-02" style="stop-color:#6BCBD9"/>
			<stop  offset="0.1326" style="stop-color:#87D2DF"/>
			<stop  offset="0.2085" style="stop-color:#99D8E3"/>
			<stop  offset="0.2915" style="stop-color:#A4DCE5"/>
			<stop  offset="0.3948" style="stop-color:#A8DDE6"/>
			<stop  offset="0.9318" style="stop-color:#CAEAF6"/>
		</radialGradient>
		<ellipse id="XMLID_16_" class="st10" cx="278.3" cy="523.7" rx="10" ry="10"/>
	</g>
	<g id="XMLID_8_">
		
			<radialGradient id="XMLID_92_" cx="-4214.2422" cy="523.3749" r="15.3087" gradientTransform="matrix(-1 0 0 1 -3574.8999 -1.000000e-04)" gradientUnits="userSpaceOnUse">
			<stop  offset="0" style="stop-color:#41C3D3"/>
			<stop  offset="6.134356e-02" style="stop-color:#6BCBD9"/>
			<stop  offset="0.1326" style="stop-color:#87D2DF"/>
			<stop  offset="0.2085" style="stop-color:#99D8E3"/>
			<stop  offset="0.2915" style="stop-color:#A4DCE5"/>
			<stop  offset="0.3948" style="stop-color:#A8DDE6"/>
			<stop  offset="0.9318" style="stop-color:#CAEAF6"/>
		</radialGradient>
		<path id="XMLID_12_" class="st11" d="M622.6,523.7c0,9.4,7.6,17,16.9,17c9.3,0,16.9-7.6,16.9-17c0-9.4-7.6-17-16.9-17
			C630.2,506.7,622.6,514.3,622.6,523.7z M626.4,523.7c0-7.2,5.8-13.1,13-13.1c7.2,0,13,5.9,13,13.1s-5.8,13.1-13,13.1
			C632.3,536.8,626.4,530.9,626.4,523.7z"/>
		
			<radialGradient id="XMLID_93_" cx="-4214.2422" cy="523.3749" r="15.3087" gradientTransform="matrix(-1 0 0 1 -3574.8999 -1.000000e-04)" gradientUnits="userSpaceOnUse">
			<stop  offset="0" style="stop-color:#41C3D3"/>
			<stop  offset="6.134356e-02" style="stop-color:#6BCBD9"/>
			<stop  offset="0.1326" style="stop-color:#87D2DF"/>
			<stop  offset="0.2085" style="stop-color:#99D8E3"/>
			<stop  offset="0.2915" style="stop-color:#A4DCE5"/>
			<stop  offset="0.3948" style="stop-color:#A8DDE6"/>
			<stop  offset="0.9318" style="stop-color:#CAEAF6"/>
		</radialGradient>
		<ellipse id="XMLID_10_" class="st12" cx="639.5" cy="523.7" rx="10" ry="10"/>
	</g>
	<g id="XMLID_3_">
		
			<image style="overflow:visible;" width="1898" height="1432" id="XMLID_18_" xlink:href="A749E541EE6165D6.png"  transform="matrix(0.24 0 0 0.24 230.6089 185.9661)">
		</image>
		<g id="XMLID_11_">
			<rect id="XMLID_17_" x="260.6" y="216" class="st13" width="395.3" height="283.5"/>
		</g>
	</g>
</g>
</svg>
