<?xml version="1.0" encoding="utf-8"?>
<!-- Generator: Adobe Illustrator 19.0.0, SVG Export Plug-In . SVG Version: 6.00 Build 0)  -->
<svg version="1.1" id="Layer_1" xmlns="http://www.w3.org/2000/svg" xmlns:xlink="http://www.w3.org/1999/xlink" x="0px" y="0px"
	 viewBox="0 0 170.4 192" style="enable-background:new 0 0 170.4 192;" xml:space="preserve">
<style type="text/css">
	.st0{fill:#FDDA58;}
	.st1{fill:#FCB317;}
	.st2{fill:#FAF39E;}
	.st3{fill:#CF962A;}
	.st4{fill:none;stroke:#9C6F2A;stroke-miterlimit:10;}
	.st5{fill:#F58421;}
	.st6{fill:#F16322;}
	.st7{fill:none;stroke:#BA4B26;stroke-linecap:round;stroke-linejoin:round;stroke-miterlimit:10;}
	.st8{fill:#FBB651;}
	.st9{fill:#D2D1D1;stroke:#636061;stroke-miterlimit:10;}
	.st10{fill:#969494;}
	.st11{fill:#636061;}
	.st12{fill:#D2D1D1;}
	.st13{fill:none;stroke:#221E20;stroke-linecap:round;stroke-linejoin:round;stroke-miterlimit:10;}
	.st14{fill:#969494;stroke:#221E20;stroke-miterlimit:10;}
	.st15{fill:url(#XMLID_100_);stroke:#221E20;stroke-linecap:round;stroke-linejoin:round;stroke-miterlimit:10;}
</style>
<g>
	<g>
		<path id="XMLID_77_" class="st0" d="M162.3,96.2c-2.4-20.4-20.8-37.6-46.3-45.4c0.5,1.2,1,3.1,0.7,5.2c-2.1,3.6-10.2,7.7-17.4,8.9
			c-12.2,2-27.7,1.1-30.5,0.6c-4.6-0.7-21.6,6.2-21.6,17.8S63,104.9,84.6,108c20.5,2.9,46.2,2.5,66.6-0.8c3.9-2.3,6.9-4.6,9.2-6.9
			C161.2,99.6,162.6,98.5,162.3,96.2z"/>
		<path id="XMLID_76_" class="st1" d="M84.6,108C63,104.9,47.1,94.8,47.1,83.2s17.1-18.5,21.6-17.8c2.9,0.5,18.3,1.4,30.5-0.6
			c7.2-1.2,15.4-5.3,17.4-8.9c0.3-2.1-0.2-3.9-0.7-5.2c-4.8-1.5-9.7-2.6-14.9-3.4c-9.6-0.5-22.9-0.1-36.5,3.8
			C38.8,58.7,19.7,74.3,19.7,88c0,10.2,3.1,18.6,27.4,24.2c14,3.2,49.5,5,69,5.2c16.8-2.1,27.7-6,35.1-10.2
			C130.8,110.5,105.2,110.9,84.6,108z"/>
		<path id="XMLID_75_" class="st0" d="M19.7,88c0-13.7,19.1-29.3,44.8-36.8c13.6-3.9,27-4.3,36.5-3.8c-5.1-0.8-10.4-1.2-15.9-1.2
			c-40.6,0-73.9,22-77.1,49.9c-0.2,1.6,1.7,3.2,2.7,4.2C21.3,110.1,40,119,87.9,119c10.9,0,20.2-0.6,28.2-1.6
			c-19.5-0.2-54.9-2-69-5.2C22.8,106.6,19.7,98.2,19.7,88z"/>
		<path id="XMLID_74_" class="st2" d="M105.2,69.8c0.2,1,9,4.9,15.4,10.7s11.5,12.9,13.2,13.7s10.4-2.6,10.8-3.7s-3.4-8.7-12.6-15.8
			c-9.2-7.1-15.1-9.5-17.1-9.7C112.9,64.8,105,68.5,105.2,69.8z"/>
		<path id="XMLID_73_" class="st1" d="M108.2,123.5c-14.4,2.1-26.9,7.7-27.5,13.9c-0.6,6.4,8,10.6,28.3,7.5
			c17.4-2.7,36.6-13,46.5-21.5c4.4-6.7,6.9-14.1,7.1-21.9C149.8,118.1,119.6,121.9,108.2,123.5z"/>
		<path id="XMLID_72_" class="st1" d="M17.6,105.7c-2.5-1.6-4.7-3.3-6.6-5c-1.1-1-3.2-2.1-3.2,0c0,30,34.6,54.4,77.3,54.4
			c4,0,7.9-0.2,11.7-0.6c-20.1-1.5-43.4-8.8-59.1-19.8C21.2,123.1,18.3,110.9,17.6,105.7z"/>
		<path id="XMLID_71_" class="st2" d="M118.6,63.5c0.2,0.5,9.8,3.7,16.5,10.2c6.7,6.5,11.2,13.7,11.5,14.9c0.3,1.2,3.8-2.3,4-3.5
			c0.2-1.2-2.3-8.8-10.2-15.4c-7.9-6.6-15.8-8.6-16.8-8.7C122.7,60.8,118.3,62.4,118.6,63.5z"/>
		<path id="XMLID_70_" class="st3" d="M80.7,137.4c0.5-6.2,13.1-11.8,27.5-13.9c11.4-1.6,41.6-5.5,54.3-22c0-0.3,0-0.6,0-0.8
			c0-1.4-1.7-0.8-2.6,0.1c-9,8.5-27,18.2-72.1,18.2c-39,0-58.6-5.9-70.2-13.4c0.6,5.2,3.5,17.4,20.1,29c15.7,11,39,18.3,59.1,19.8
			c26.1-2.8,47.9-14.7,58.6-31c-9.9,8.5-29.1,18.8-46.5,21.5C88.8,148,80.2,143.8,80.7,137.4z"/>
		<path id="XMLID_69_" class="st4" d="M87.9,119c45.9,0,63.8-10.1,72.6-18.7c0.7-0.7,2.1-1.8,1.8-4.1c-3.3-27.9-36.5-49.9-77.1-49.9
			s-73.9,22-77.1,49.9c-0.2,1.6,1.7,3.2,2.7,4.2C21.3,110.1,40,119,87.9,119z"/>
		<path id="XMLID_68_" class="st4" d="M87.9,119c-47.5,0-66.3-8.8-76.8-18.4c-1.1-1-3.2-2.1-3.2,0c0,30,34.6,54.4,77.3,54.4
			c42.7,0,77.4-24.4,77.4-54.4c0-1.4-1.7-0.8-2.6,0.1C151,109.3,132.9,119,87.9,119z"/>
		<path id="XMLID_67_" class="st5" d="M61,49.9c0.5-6.7,6.7-12,12-15C63.7,38.6,57.4,46,57.4,54.6c4.1,5.2,12.8,7.8,28.6,7.8
			c2.1,0,4.1-0.1,6-0.2C79,61.1,60.4,57.1,61,49.9z"/>
		<path id="XMLID_66_" class="st5" d="M70.5,48.6c4.1,7.6,18.3,7,25.2,6c6.5-1,17.2-4.4,15.9-10c-4.7-7.2-14.4-12.1-25.6-12.1
			c-2.4,0-4.6,0.2-6.8,0.6C74.8,35.5,66.9,42,70.5,48.6z"/>
		<path id="XMLID_65_" class="st6" d="M111.6,44.6c1.3,5.5-9.4,8.9-15.9,10c-6.9,1.1-21.1,1.7-25.2-6c-3.5-6.6,4.3-13.1,8.8-15.5
			c-2.2,0.4-4.3,1-6.3,1.8c-5.3,3-11.4,8.2-12,15C60.4,57.1,79,61.1,92.1,62.1c12-0.7,19-3.7,22.6-7.6
			C114.7,51,113.6,47.6,111.6,44.6z"/>
		<path id="XMLID_64_" class="st7" d="M114.7,54.6c-4.1,4.5-12.8,7.8-28.6,7.8s-24.5-2.5-28.6-7.8c0-12.2,12.8-22.1,28.6-22.1
			S114.7,42.4,114.7,54.6z"/>
		<path id="XMLID_63_" class="st8" d="M82.2,40.7c-0.2,2.7,4.1,3,9.6,6.8s12.6,4.7,14.2,0c1.6-4.7-4-8.8-8.9-9.9
			C92.3,36.5,82.5,36.5,82.2,40.7z"/>
	</g>
	<g>
		<ellipse id="XMLID_62_" class="st9" cx="31" cy="110.9" rx="9.5" ry="9.7"/>
		<ellipse id="XMLID_61_" class="st9" cx="139.4" cy="109.6" rx="9.5" ry="9.7"/>
		<ellipse id="XMLID_60_" class="st9" cx="65.8" cy="117.7" rx="9.8" ry="10.5"/>
		<ellipse id="XMLID_59_" class="st9" cx="105" cy="118.5" rx="10.1" ry="10.7"/>
		<ellipse id="XMLID_58_" class="st6" cx="31.2" cy="110.8" rx="7.1" ry="7.2"/>
		<ellipse id="XMLID_57_" class="st6" cx="139.5" cy="109.5" rx="7.1" ry="7.2"/>
		<ellipse id="XMLID_56_" class="st6" cx="66" cy="117.6" rx="7.3" ry="7.8"/>
		<ellipse id="XMLID_55_" class="st6" cx="105.2" cy="118.3" rx="7.5" ry="8"/>
		<ellipse id="XMLID_54_" class="st5" cx="66.2" cy="115.5" rx="6.2" ry="5.7"/>
		<ellipse id="XMLID_53_" class="st7" cx="66" cy="117.6" rx="7.3" ry="7.8"/>
		<ellipse id="XMLID_52_" class="st5" cx="105.5" cy="116.2" rx="6.4" ry="5.9"/>
		<ellipse id="XMLID_51_" class="st7" cx="105.2" cy="118.3" rx="7.5" ry="8"/>
		<ellipse id="XMLID_50_" class="st5" cx="31.7" cy="108.9" rx="5.7" ry="5.4"/>
		<path id="XMLID_49_" class="st8" d="M28.9,104.9c-0.4,0.5,0.1,1.8,1.6,1.5c2.2-0.4,4.9,0.9,5.8,1.9c0.9,1.1,0.9,0.2,0.1-1.2
			c-0.4-0.6-1.5-1.7-2.9-2.3C31.6,104,29.5,104,28.9,104.9z"/>
		<ellipse id="XMLID_48_" class="st5" cx="139.9" cy="107.4" rx="6" ry="5.1"/>
		<path id="XMLID_47_" class="st8" d="M137.3,103.6c-0.4,0.5,0.1,1.8,1.6,1.5c2.2-0.4,4.9,0.9,5.8,1.9c0.9,1.1,0.9,0.2,0.1-1.2
			c-0.4-0.6-1.5-1.7-2.9-2.3C140,102.8,137.9,102.8,137.3,103.6z"/>
		<path id="XMLID_46_" class="st8" d="M63.6,111.2c-0.4,0.6,0.1,1.9,1.7,1.6c2.3-0.5,5.1,0.9,6,2c1,1.2,0.9,0.2,0.1-1.3
			c-0.4-0.7-1.6-1.8-3-2.5C66.5,110.2,64.3,110.2,63.6,111.2z"/>
		<path id="XMLID_45_" class="st8" d="M102.8,111.9c-0.4,0.6,0.1,2,1.7,1.7c2.4-0.5,5.2,1,6.1,2.1c1,1.3,0.9,0.2,0.1-1.4
			c-0.4-0.7-1.6-1.9-3.1-2.5C105.7,110.9,103.4,110.9,102.8,111.9z"/>
		<ellipse id="XMLID_44_" class="st7" cx="31.2" cy="110.8" rx="7.1" ry="7.2"/>
		<ellipse id="XMLID_43_" class="st7" cx="139.5" cy="109.5" rx="7.1" ry="7.2"/>
	</g>
	<g>
		<path id="XMLID_42_" class="st10" d="M145.8,144.1c2.6,3.2,4.3,7.7,3.9,8.1c-0.6,0.6-2.7,0.4-3.4,0c-0.7-0.4-8.6-10.2-9.5-9.9
			c-0.5,0.2,0.3,1.7,1.2,3.1c-1.8-2.3-3.8-4.4-5.1-5.8c2-1.1,3.7-2.1,4.7-2.6c2.2-1.3,3.4-0.4,5.5,1.8c0.9,0.9,2.2,2.3,3.5,3.9
			C143.4,140.2,143.4,141.2,145.8,144.1z"/>
		<path id="XMLID_41_" class="st10" d="M138.8,159.6c-1.6,3.9,0.3,2.6,1.5,1.3c1.3-1.5,4.7-5.4,5.4-5.9c0.7-0.4,3.6-0.6,4.1,0.2
			c0.4,0.8-1.7,4-2.6,5.6c-0.8,1.4,0,1.4,1.3,0.4c-2.1,2.5-4.9,5.3-8,8.4c-8.9,8.8-18.9,17-19.9,17.1c-0.9,0.2-2.9-1.9-2.9-3v0
			C122.3,179.2,133.2,167.4,138.8,159.6z"/>
		<path id="XMLID_40_" class="st11" d="M117.7,183.7c-0.1-1.5,3.4-30.4,2.3-32.8c-1.1-2.4-1.6-4.7,0.9-5.5c2.7-0.8,7.9-3.5,11.9-5.7
			c2.8,3,9.2,10,9.5,13.2C142.7,157,124.1,177.4,117.7,183.7z"/>
		<path id="XMLID_39_" class="st12" d="M147.2,160.8c0.9-1.6,3-4.8,2.6-5.6c-0.4-0.8-3.3-0.7-4.1-0.2c-0.7,0.4-4.1,4.4-5.4,5.9
			c-1.2,1.3-3.1,2.6-1.5-1.3c2.2-3.1,3.6-5.5,3.5-6.7c-0.1-1.7-2.2-4.6-4.4-7.4c-0.9-1.4-1.7-2.9-1.2-3.1c0.9-0.4,8.8,9.5,9.5,9.9
			c0.7,0.4,2.8,0.6,3.4,0c0.4-0.4-1.2-4.9-3.9-8.1c-2.4-2.9-2.4-4,0.9-1.4c2.8,3.3,5.8,7.6,6,11.3c0.1,1.6-1.5,4.1-4.1,7.1
			C147.2,162.3,146.4,162.2,147.2,160.8z"/>
		<path id="XMLID_38_" class="st10" d="M31.6,158.8c1.6,3.9-0.3,2.6-1.5,1.3c-1.3-1.5-4.7-5.4-5.4-5.9c-0.7-0.4-3.6-0.6-4.1,0.2
			c-0.4,0.8,1.7,4,2.6,5.6c0.8,1.4,0,1.4-1.3,0.4c2.1,2.5,4.9,5.3,8,8.4c8.9,8.8,18.9,17,19.9,17.1c0.9,0.2,2.9-1.9,2.9-3v0
			C48.1,178.4,37.2,166.6,31.6,158.8z"/>
		<path id="XMLID_37_" class="st13" d="M152.7,154.1c0.2,2.9-5.2,8.7-12.1,15.5c-8.9,8.8-18.9,17-19.9,17.1c-0.9,0.2-2.9-1.9-2.9-3
			c-0.1-1.5,3.4-30.4,2.3-32.8c-1.1-2.4-1.6-4.7,0.9-5.5c4-1.2,13.6-6.6,16.6-8.3c2.2-1.3,3.4-0.4,5.5,1.8
			C145.9,141.7,152.3,148.5,152.7,154.1z"/>
		<path id="XMLID_36_" class="st11" d="M52.7,182.9c0.1-1.5-3.4-30.4-2.3-32.8c1.1-2.4,1.6-4.7-0.9-5.5c-2.7-0.8-7.9-3.5-11.9-5.7
			c-2.8,3-9.2,10-9.5,13.2C27.7,156.2,46.3,176.6,52.7,182.9z"/>
		<path id="XMLID_35_" class="st10" d="M24.6,143.4c-2.6,3.2-4.3,7.7-3.9,8.1c0.6,0.6,2.7,0.4,3.4,0c0.7-0.4,8.6-10.2,9.5-9.9
			c0.5,0.2-0.3,1.7-1.2,3.1c1.8-2.3,3.8-4.4,5.1-5.8c-2-1.1-3.7-2.1-4.7-2.6c-2.2-1.3-3.4-0.4-5.5,1.8c-0.9,0.9-2.2,2.3-3.5,3.9
			C27,139.4,27,140.4,24.6,143.4z"/>
		<path id="XMLID_34_" class="st12" d="M23.2,160c-0.9-1.6-3-4.8-2.6-5.6c0.4-0.8,3.3-0.7,4.1-0.2c0.7,0.4,4.1,4.4,5.4,5.9
			c1.2,1.3,3.1,2.6,1.5-1.3c-2.2-3.1-3.6-5.5-3.5-6.7c0.1-1.7,2.2-4.6,4.4-7.4c0.9-1.4,1.7-2.9,1.2-3.1c-0.9-0.4-8.8,9.5-9.5,9.9
			c-0.7,0.4-2.8,0.6-3.4,0c-0.4-0.4,1.2-4.9,3.9-8.1c2.4-2.9,2.4-4-0.9-1.4c-2.8,3.3-5.8,7.6-6,11.3c-0.1,1.6,1.5,4.1,4.1,7.1
			C23.2,161.5,24,161.4,23.2,160z"/>
		<path id="XMLID_33_" class="st13" d="M17.7,153.3c-0.2,2.9,5.2,8.7,12.1,15.5c8.9,8.8,18.9,17,19.9,17.1c0.9,0.2,2.9-1.9,2.9-3
			c0.1-1.5-3.4-30.4-2.3-32.8c1.1-2.4,1.6-4.7-0.9-5.5c-4-1.2-13.6-6.6-16.6-8.3c-2.2-1.3-3.4-0.4-5.5,1.8
			C24.5,141,18.1,147.7,17.7,153.3z"/>
	</g>
	<g>
		<path id="XMLID_32_" class="st14" d="M85.2,17.1c-2.6,0-4.9-1.4-6-3.4c0,0.2,0,0.3,0,0.5c0,3,2.7,5.4,6,5.4c3.3,0,6-2.4,6-5.4
			c0-0.2,0-0.3,0-0.5C90.1,15.7,87.8,17.1,85.2,17.1z"/>
		<linearGradient id="XMLID_100_" gradientUnits="userSpaceOnUse" x1="81.7978" y1="27.8013" x2="88.5597" y2="27.8013">
			<stop  offset="0" style="stop-color:#636061"/>
			<stop  offset="1" style="stop-color:#D2D1D1"/>
		</linearGradient>
		<path id="XMLID_31_" class="st15" d="M88.4,18.8c-0.9,0.5-2,0.8-3.2,0.8c-1.2,0-2.2-0.3-3.1-0.8l-0.3,14.1c0,0-0.2,4,3.5,4
			c3.8,0,3.2-4.5,3.2-4.5L88.4,18.8z"/>
		<ellipse id="XMLID_30_" class="st6" cx="85.2" cy="11.2" rx="6.6" ry="5.9"/>
		<ellipse id="XMLID_29_" class="st7" cx="85.2" cy="11.2" rx="6.6" ry="5.9"/>
		<ellipse id="XMLID_28_" class="st5" cx="85.2" cy="9.5" rx="5.4" ry="4.3"/>
		<path id="XMLID_27_" class="st8" d="M82.6,7.2c0.4,0.6,2.6-1,5.5,1.2C89.8,9.6,90,8,88.5,6.8C86.4,5.1,81.7,5.8,82.6,7.2z"/>
	</g>
</g>
</svg>
